HIERARCHY
ROOT pelvis
{
OFFSET 0 0 0
CHANNELS 6 Xrotation Yrotation Zrotation Xposition Yposition Zposition
JOINT lfemur
{
OFFSET -0.111059 104.74 -0.455087
CHANNELS 3 Xrotation Yrotation Zrotation
JOINT ltibia
{
OFFSET -5.43723 -10.6762 -417.098
CHANNELS 3 Xrotation Yrotation Zrotation
JOINT lfoot
{
OFFSET -4.62719 -0.813499 -429.718
CHANNELS 3 Xrotation Yrotation Zrotation
JOINT ltoes
{
OFFSET 122.085 1.71335 0.964115
CHANNELS 3 Xrotation Yrotation Zrotation
JOINT ltoe_EF
{
OFFSET 52.4303 0.372808 0.598304
CHANNELS 3 Xrotation Yrotation Zrotation
End Site
{
OFFSET 0 0 0
}
}
}
}
}
}
JOINT rfemur
{
OFFSET 0.111059 -104.74 0.455087
CHANNELS 3 Xrotation Yrotation Zrotation
JOINT rtibia
{
OFFSET -2.25861 3.36807 -417.25
CHANNELS 3 Xrotation Yrotation Zrotation
JOINT rfoot
{
OFFSET -1.92806 -2.95471 -420.787
CHANNELS 3 Xrotation Yrotation Zrotation
JOINT rtoes
{
OFFSET 145.936 1.81132 -2.65028
CHANNELS 3 Xrotation Yrotation Zrotation
JOINT rtoe_EF
{
OFFSET 20.2563 0.216067 -0.348232
CHANNELS 3 Xrotation Yrotation Zrotation
End Site
{
OFFSET 0 0 0
}
}
}
}
}
}
JOINT thorax
{
OFFSET -50.1838 0.782719 192.402
CHANNELS 3 Xrotation Yrotation Zrotation
JOINT lclavicle
{
OFFSET 61.3126 -0.421503 353.619
CHANNELS 3 Xrotation Yrotation Zrotation
JOINT lhumerus
{
OFFSET -61.5629 177.517 26.2422
CHANNELS 3 Xrotation Yrotation Zrotation
JOINT lradius
{
OFFSET -24.188 2.8579 -287.634
CHANNELS 3 Xrotation Yrotation Zrotation
JOINT lhand
{
OFFSET 3.1155 53.9434 -242.867
CHANNELS 3 Xrotation Yrotation Zrotation
End Site
{
OFFSET 0 0 0
}
}
}
}
}
JOINT rclavicle
{
OFFSET 61.3126 -0.421503 353.619
CHANNELS 3 Xrotation Yrotation Zrotation
JOINT rhumerus
{
OFFSET -61.9828 -177.088 28.0822
CHANNELS 3 Xrotation Yrotation Zrotation
JOINT rradius
{
OFFSET -15.6822 -3.90625 -288.21
CHANNELS 3 Xrotation Yrotation Zrotation
JOINT rhand
{
OFFSET 71.4655 -101.499 215.626
CHANNELS 3 Xrotation Yrotation Zrotation
End Site
{
OFFSET 0 0 0
}
}
}
}
}
JOINT Neck_Root
{
OFFSET -0.649995 -0.403434 348.974
CHANNELS 3 Xrotation Yrotation Zrotation
JOINT head
{
OFFSET 34.0699 -9.18338 100.843
CHANNELS 3 Xrotation Yrotation Zrotation
End Site
{
OFFSET 0 0 0
}
}
}
}
}
MOTION
Frames: 17
Frame Time: 0.00833333
-1.505967 5.248662 5.264904 -92.737671 194.509354 952.479553 2.117363 0.469201 27.046095 -1.364330 -4.727806 -0.039339 0.777818 20.370000 -5.628761 -1.996928 -7.900022 0.835875 0.000000 0.000000 0.000000 0.070603 -2.071369 -23.970235 0.870969 -5.260637 0.110691 -7.297513 25.038106 0.109896 0.948371 -4.952910 -0.189529 0.000000 0.000000 0.000000 -0.319030 -6.220854 3.813529 -11.331674 0.869582 0.227072 89.976119 -9.849488 6.049468 -23.353942 -63.492993 -64.662098 -4.429355 6.919469 5.204891 16.459549 -1.105056 -1.328268 -94.536209 -4.763728 1.007021 52.180741 60.044902 33.951620 2.204753 -2.364121 8.782154 0.000000 0.000000 0.000000 -0.360045 0.218435 -5.176956 
-1.508909 5.249723 5.263983 -92.771103 194.494202 952.479858 2.120852 0.463716 27.046859 -1.363495 -4.725012 -0.039370 0.777350 20.367395 -5.627718 -1.999039 -7.908719 0.836226 0.000000 0.000000 0.000000 0.074694 -2.074987 -23.971849 0.870963 -5.259773 0.110627 -7.289866 25.033353 0.113758 0.945664 -4.939275 -0.189506 0.000000 0.000000 0.000000 -0.314418 -6.226042 3.815995 -11.331903 0.869738 0.228267 89.967466 -9.860970 6.048791 -23.353494 -63.490880 -64.655746 -4.424897 6.915751 5.202047 16.461097 -1.105644 -1.326957 -94.539362 -4.762835 1.008425 52.188783 60.053178 33.953078 2.205606 -2.363343 8.779430 0.000000 0.000000 0.000000 -0.361186 0.212495 -5.175917 
-1.503756 5.247647 5.267836 -92.786148 194.484940 952.487122 2.115000 0.459550 27.045191 -1.361225 -4.716742 -0.039184 0.774453 20.364135 -5.629399 -1.994996 -7.892237 0.835365 0.000000 0.000000 0.000000 0.069348 -2.074753 -23.980552 0.871058 -5.259107 0.110650 -7.287684 25.043415 0.119498 0.950721 -4.966101 -0.190487 0.000000 0.000000 0.000000 -0.318735 -6.225754 3.820866 -11.333139 0.869551 0.218457 89.966547 -9.858180 6.048287 -23.362056 -63.493561 -64.669176 -4.433921 6.926204 5.211531 16.458147 -1.105703 -1.335202 -94.534629 -4.764842 1.006654 52.174931 60.053073 33.960566 2.214355 -2.362213 8.767301 0.000000 0.000000 0.000000 -0.364114 0.202945 -5.185169 
-1.503176 5.243421 5.266435 -92.799217 194.477905 952.484802 2.114792 0.462107 27.038330 -1.360249 -4.714615 -0.039144 0.787795 20.359128 -5.618589 -1.993798 -7.886054 0.833995 0.000000 0.000000 0.000000 0.069804 -2.069609 -23.977121 0.871700 -5.263533 0.110780 -7.285744 25.044437 0.120154 0.953028 -4.979280 -0.190732 0.000000 0.000000 0.000000 -0.318352 -6.225045 3.820904 -11.334587 0.869648 0.220486 89.969321 -9.858475 6.044764 -23.363617 -63.494407 -64.668075 -4.424116 6.919513 5.205504 16.454793 -1.105922 -1.331967 -94.529112 -4.765640 1.009809 52.156214 60.039547 33.975907 2.207607 -2.359773 8.751626 0.000000 0.000000 0.000000 -0.363886 0.196542 -5.189783 
-1.500498 5.247003 5.266075 -92.849365 194.476761 952.491699 2.111824 0.454624 27.038467 -1.359835 -4.713214 -0.039186 0.791420 20.373240 -5.621322 -1.998134 -7.903648 0.835826 0.000000 0.000000 0.000000 0.068151 -2.074762 -23.976209 0.871786 -5.264248 0.110759 -7.302055 25.051709 0.113309 0.949735 -4.959195 -0.190008 0.000000 0.000000 0.000000 -0.321924 -6.232529 3.821352 -11.334473 0.869517 0.220080 89.966746 -9.861094 6.045630 -23.374365 -63.498274 -64.681166 -4.429023 6.924276 5.210391 16.456024 -1.106847 -1.327687 -94.526834 -4.762654 1.011058 52.143267 60.039156 33.989583 2.204634 -2.364397 8.768763 0.000000 0.000000 0.000000 -0.359878 0.191304 -5.188888 
-1.502220 5.242001 5.265707 -92.883629 194.471222 952.496765 2.113817 0.454810 27.035607 -1.358237 -4.708188 -0.039103 0.795919 20.364108 -5.615043 -1.999317 -7.907782 0.835369 0.000000 0.000000 0.000000 0.071699 -2.071364 -23.970853 0.871663 -5.264851 0.110710 -7.301024 25.042328 0.109705 0.945055 -4.935232 -0.189222 0.000000 0.000000 0.000000 -0.318507 -6.227181 3.825593 -11.335288 0.869831 0.219141 89.965023 -9.867022 6.050395 -23.394750 -63.506105 -64.685651 -4.425767 6.920884 5.207268 16.455022 -1.106953 -1.329714 -94.522747 -4.769468 1.002454 52.135918 60.042613 34.009061 2.202773 -2.359031 8.740096 0.000000 0.000000 0.000000 -0.361596 0.176545 -5.196680 
-1.502785 5.237369 5.267457 -92.905792 194.456421 952.504395 2.115525 0.455321 27.037218 -1.357014 -4.703438 -0.039067 0.788396 20.360476 -5.618793 -1.997394 -7.900678 0.835081 0.000000 0.000000 0.000000 0.072980 -2.070401 -23.975810 0.871215 -5.261228 0.110597 -7.292729 25.044297 0.116329 0.946998 -4.946584 -0.189914 0.000000 0.000000 0.000000 -0.316635 -6.224282 3.826781 -11.333059 0.869689 0.217224 89.952554 -9.876317 6.057919 -23.391959 -63.500858 -64.710156 -4.443100 6.928234 5.216495 16.451532 -1.106813 -1.332520 -94.510698 -4.779737 0.997076 52.125847 60.052820 34.021329 2.210343 -2.361826 8.743929 0.000000 0.000000 0.000000 -0.362725 0.169415 -5.198394 
-1.501617 5.234565 5.268008 -92.936630 194.447418 952.498718 2.114255 0.455515 27.037949 -1.356458 -4.701290 -0.039029 0.781434 20.349240 -5.618947 -1.986612 -7.857684 0.831866 0.000000 0.000000 0.000000 0.072203 -2.067785 -23.975219 0.871638 -5.264110 0.110701 -7.288546 25.047347 0.119170 0.951221 -4.970268 -0.190520 0.000000 0.000000 0.000000 -0.317568 -6.223244 3.826196 -11.336027 0.869819 0.216960 89.956228 -9.875985 6.058926 -23.409673 -63.509491 -64.718665 -4.430052 6.929574 5.216872 16.446941 -1.107382 -1.326969 -94.496174 -4.782570 0.991535 52.096648 60.039506 34.057329 2.203259 -2.359258 8.722905 0.000000 0.000000 0.000000 -0.361955 0.164876 -5.202520 
-1.500537 5.232969 5.267240 -92.985817 194.439819 952.508057 2.112972 0.449970 27.035652 -1.353909 -4.692939 -0.038883 0.796190 20.355222 -5.612673 -1.992133 -7.877765 0.833140 0.000000 0.000000 0.000000 0.071494 -2.067936 -23.974456 0.871848 -5.265391 0.110758 -7.287084 25.050252 0.120833 0.952340 -4.976682 -0.190737 0.000000 0.000000 0.000000 -0.318452 -6.222783 3.829109 -11.341683 0.870439 0.217381 89.961203 -9.881258 6.055718 -23.416167 -63.515879 -64.712170 -4.408008 6.922704 5.209535 16.449294 -1.107790 -1.327713 -94.492010 -4.791354 0.988491 52.090189 60.042743 34.067770 2.203026 -2.362419 8.730575 0.000000 0.000000 0.000000 -0.358658 0.160793 -5.197035 
-1.500515 5.230563 5.267293 -93.022171 194.429382 952.512085 2.114050 0.447383 27.041104 -1.353332 -4.690108 -0.038936 0.789985 20.356776 -5.617365 -2.000075 -7.910124 0.835602 0.000000 0.000000 0.000000 0.073641 -2.070562 -23.965201 0.870557 -5.260240 0.110481 -7.304123 25.043008 0.107049 0.946884 -4.946271 -0.189290 0.000000 0.000000 0.000000 -0.319256 -6.223182 3.828612 -11.338084 0.870178 0.218313 89.946233 -9.895653 6.062361 -23.410713 -63.510005 -64.729042 -4.413807 6.924892 5.213902 16.450950 -1.108190 -1.326311 -94.484329 -4.806895 0.987868 52.101154 60.057681 34.067370 2.194807 -2.360518 8.721100 0.000000 0.000000 0.000000 -0.354320 0.156940 -5.197313 
-1.497919 5.230822 5.269603 -93.042130 194.419434 952.502380 2.111293 0.443222 27.029926 -1.351609 -4.685481 -0.038844 0.792844 20.341601 -5.608898 -1.994087 -7.886607 0.832888 0.000000 0.000000 0.000000 0.070332 -2.075194 -23.964965 0.869280 -5.253372 0.110271 -7.308435 25.039896 0.103159 0.945094 -4.936409 -0.188864 0.000000 0.000000 0.000000 -0.323640 -6.226887 3.825070 -11.337836 0.869852 0.217242 89.944890 -9.896990 6.065656 -23.443853 -63.522408 -64.733184 -4.412331 6.920986 5.210149 16.451345 -1.107750 -1.330569 -94.471895 -4.827414 0.988270 52.090224 60.055556 34.077547 2.201185 -2.370208 8.750621 0.000000 0.000000 0.000000 -0.350811 0.157098 -5.199277 
-1.497920 5.227664 5.272300 -93.062660 194.404465 952.496704 2.111343 0.442605 27.026785 -1.350656 -4.682242 -0.038812 0.799205 20.343343 -5.605889 -1.992903 -7.880568 0.832408 0.000000 0.000000 0.000000 0.070248 -2.074315 -23.974394 0.869242 -5.251243 0.110243 -7.292887 25.043433 0.115122 0.948114 -4.954142 -0.190006 0.000000 0.000000 0.000000 -0.325106 -6.225924 3.822364 -11.334283 0.869824 0.219693 89.937477 -9.907663 6.063543 -23.440360 -63.523256 -64.730895 -4.418947 6.931652 5.219721 16.450561 -1.107822 -1.330858 -94.460923 -4.841034 0.988061 52.079366 60.052906 34.087805 2.211392 -2.377495 8.768794 0.000000 0.000000 0.000000 -0.345248 0.155584 -5.196649 
-1.499255 5.227986 5.270808 -93.103348 194.389313 952.497620 2.114141 0.437834 27.034713 -1.350207 -4.679749 -0.038889 0.793869 20.356406 -5.614409 -1.997116 -7.898007 0.834581 0.000000 0.000000 0.000000 0.074068 -2.077235 -23.973410 0.869459 -5.252310 0.110185 -7.301880 25.049316 0.112641 0.952488 -4.976076 -0.190412 0.000000 0.000000 0.000000 -0.323212 -6.230751 3.826361 -11.334209 0.869539 0.216213 89.933796 -9.910947 6.056858 -23.432365 -63.522719 -64.730480 -4.411900 6.928520 5.217252 16.456895 -1.109006 -1.328844 -94.461512 -4.847155 0.990690 52.067444 60.055759 34.095680 2.213863 -2.381177 8.776568 0.000000 0.000000 0.000000 -0.345576 0.158399 -5.194429 
-1.500643 5.224912 5.269763 -93.141922 194.377365 952.497437 2.116572 0.436377 27.036788 -1.349170 -4.676029 -0.038883 0.792646 20.356588 -5.615235 -1.997641 -7.900208 0.834779 0.000000 0.000000 0.000000 0.077723 -2.077441 -23.966040 0.869302 -5.253082 0.110131 -7.314418 25.054294 0.105880 0.953325 -4.979814 -0.190102 0.000000 0.000000 0.000000 -0.320669 -6.229763 3.827746 -11.336305 0.870164 0.220883 89.932810 -9.923526 6.054265 -23.427288 -63.522312 -64.722188 -4.409126 6.925816 5.215149 16.459829 -1.108996 -1.330999 -94.462045 -4.858977 0.994272 52.039286 60.028788 34.113508 2.205147 -2.381082 8.765065 0.000000 0.000000 0.000000 -0.347068 0.159972 -5.196745 
-1.497652 5.224556 5.270146 -93.176025 194.367950 952.504883 2.112476 0.433255 27.040309 -1.348465 -4.672945 -0.038819 0.793067 20.360177 -5.617235 -1.998665 -7.903492 0.835404 0.000000 0.000000 0.000000 0.074435 -2.082224 -23.971978 0.868620 -5.247488 0.109995 -7.312738 25.052951 0.108076 0.952891 -4.976768 -0.190257 0.000000 0.000000 0.000000 -0.324667 -6.232386 3.828698 -11.337394 0.870153 0.219474 89.932831 -9.928290 6.049585 -23.414975 -63.518298 -64.721287 -4.409951 6.923769 5.214191 16.461875 -1.109403 -1.332000 -94.454983 -4.867218 0.996543 51.987462 59.990355 34.149504 2.195987 -2.379500 8.741957 0.000000 0.000000 0.000000 -0.345189 0.160660 -5.200311 
-1.496717 5.225922 5.271057 -93.212479 194.352997 952.516418 2.111246 0.429123 27.039546 -1.348187 -4.671964 -0.038840 0.790187 20.365091 -5.620525 -2.001211 -7.914767 0.836526 0.000000 0.000000 0.000000 0.072284 -2.087455 -23.978849 0.867842 -5.241174 0.109848 -7.293921 25.045826 0.118200 0.953346 -4.981260 -0.190966 0.000000 0.000000 0.000000 -0.327534 -6.238536 3.827500 -11.335335 0.870188 0.222368 89.929667 -9.938454 6.039736 -23.392273 -63.512918 -64.712890 -4.409131 6.919344 5.211167 16.465895 -1.109881 -1.332323 -94.451366 -4.878546 1.004891 51.981894 59.992258 34.141512 2.195056 -2.379542 8.736964 0.000000 0.000000 0.000000 -0.344710 0.167853 -5.205385 
-1.500320 5.226329 5.270675 -93.240494 194.338608 952.522583 2.115994 0.424643 27.037574 -1.347201 -4.668992 -0.038872 0.790043 20.351793 -5.614946 -1.997961 -7.901611 0.834672 0.000000 0.000000 0.000000 0.077511 -2.090151 -23.979561 0.867674 -5.239731 0.109735 -7.292785 25.037563 0.116952 0.945391 -4.938600 -0.190052 0.000000 0.000000 0.000000 -0.323831 -6.242825 3.827848 -11.334223 0.870289 0.225172 89.930100 -9.943122 6.030061 -23.358326 -63.501733 -64.711502 -4.414476 6.919663 5.212870 16.460886 -1.109432 -1.334408 -94.437592 -4.894350 1.007346 51.998419 60.019710 34.123566 2.193550 -2.368660 8.692058 0.000000 0.000000 0.000000 -0.343448 0.171215 -5.199213 
